# AST/ASF file generated using VICON BodyLanguage
# -----------------------------------------------
:version 1.10
:name VICON
:units
  mass 1.0
  length 0.45
  angle deg
:documentation
   .ast/.asf automatically generated from VICON data using
   VICON BodyBuilder and BodyLanguage model FoxedUp or BRILLIANT.MOD
:root
   order TX TY TZ RX RY RZ
   axis XYZ
   position 0 0 0  
   orientation 0 0 0 
:bonedata
  begin
     id 1 
     name lhipjoint
     direction 0.662698 -0.695252 0.27831 
     length 2.53073 
     axis 0 0 0  XYZ
  end
  begin
     id 2 
     name lfemur
     direction 0.34202 -0.939693 0  
     length 7.16147  
     axis 0 0 20  XYZ
    dof rx ry rz
    limits (-160.0 20.0)
           (-70.0 70.0)
           (-60.0 70.0)
  end
  begin
     id 3 
     name ltibia
     direction 0.34202 -0.939693 0   
     length 7.63967   
     axis 0 0 20   XYZ
    dof rx
    limits (-10.0 170.0)
  end
  begin
     id 4 
     name lfoot
     direction 0.0938457 -0.257721 0.961651   
     length 1.89793   
     axis -90 7.62852e-016 20   XYZ
    dof rx rz
    limits (-45.0 90.0)
           (-70.0 20.0)
  end
  begin
     id 5 
     name ltoes
     direction -0.00116841 -0.0030592 0.999995   
     length 0.955649   
     axis -90 7.62852e-016 20   XYZ
    dof rx
    limits (-90.0 20.0)
  end
  begin
     id 6 
     name rhipjoint
     direction -0.649445 -0.705948 0.282592   
     length 2.49238  
     axis 0 0 0  XYZ 
  end
  begin
     id 7 
     name rfemur
     direction -0.34202 -0.939693 0   
     length 6.90728   
     axis 0 0 -20   XYZ
    dof rx ry rz
    limits (-160.0 20.0)
           (-70.0 70.0)
           (-70.0 60.0)
  end
  begin
     id 8 
     name rtibia
     direction -0.34202 -0.939693 0   
     length 7.72868   
     axis 0 0 -20   XYZ
    dof rx
    limits (-10.0 170.0)
 end
 begin
     id 9 
     name rfoot
     direction -0.0920068 -0.252865 0.963117   
     length 1.97476  
     axis -90 -7.62852e-016 -20   XYZ
    dof rx rz
    limits (-45.0 90.0)
           (-20.0 70.0)
  end
  begin
     id 10 
     name rtoes
     direction 0.000391322 0.00230649 0.999997   
     length 0.992641   
     axis -90 -7.62852e-016 -20   XYZ
    dof rx
    limits (-90.0 20.0)
  end
  begin
     id 11 
     name lowerback
     direction -0.00875327 0.998321 -0.0572635   
     length 2.20024   
     axis 0 0 0   XYZ
    dof rx ry rz
    limits (-20.0 45.0)
           (-30.0 30.0)
           (-30.0 30.0)
  end
  begin
     id 12 
     name upperback
     direction 0.00753931 0.999972 -0.000360425   
     length 2.20538   
     axis 0 0 0   XYZ
    dof rx ry rz
    limits (-20.0 45.0)
           (-30.0 30.0)
           (-30.0 30.0)
  end
  begin
     id 13 
     name thorax
     direction 0.0117767 0.999601 0.0256663   
     length 2.21508   
     axis 0 0 0   XYZ
    dof rx ry rz
    limits (-20.0 45.0)
           (-30.0 30.0)
           (-30.0 30.0)
  end
  begin
     id 14 
     name lowerneck
     direction 0.060228 0.994909 0.0807986   
     length 1.7607   
     axis 0 0 0   XYZ
    dof rx ry rz
    limits (-20.0 45.0)
           (-30.0 30.0)
           (-30.0 30.0)
  end
  begin
     id 15 
     name upperneck
     direction -0.0563647 0.959594 -0.275685   
     length 1.75612   
     axis 0 0 0   XYZ
    dof rx ry rz
    limits (-20.0 45.0)
           (-30.0 30.0)
           (-30.0 30.0)
  end
  begin
     id 16
     name head
     direction -0.0161544 0.99458 -0.102714  
     length 1.79288  
     axis 0 0 0   XYZ
    dof rx ry rz
    limits (-20.0 45.0)
           (-30.0 30.0)
           (-30.0 30.0)
  end
  begin
     id 17 
     name lclavicle
     direction 0.93913 0.332189 -0.087669  
     length 3.52087  
     axis 0 0 0   XYZ
    dof ry rz
    limits (-20.0 10.0)
           (0.0 20.0)
  end
  begin
     id 18 
     name lhumerus
     direction 1 -4.48974e-011 -2.70836e-027   
     length 5.35289   
     axis -180 -30 -90   XYZ
    dof rx ry rz
    limits (-60.0 90.0)
           (-90.0 90.0)
           (-90.0 90.0)
  end
  begin
     id 19
     name lradius
     direction 1 -4.48961e-011 -9.76021e-027   
     length 3.27727   
     axis -180 -30 -90   XYZ
    dof rx
    limits (-10.0 170.0)
  end
  begin
     id 20
     name lwrist
     direction 1 -4.49103e-011 -2.23668e-026   
     length 1.63864   
     axis 1.44924e-014 90 90   XYZ
    dof ry
    limits (-180.0 0.0)
 end
  begin
     id 21 
     name lhand
     direction 1 3.0697e-005 0.000161777   
     length 0.54443   
     axis 2.85318e-014 90 90   XYZ
    dof rx rz
    limits (-90.0 90.0)
           (-45.0 45.0)
  end
  begin
     id 22 
     name lfingers
     direction 1 -4.49027e-011 -8.9447e-026   
     length 0.438912   
     axis 5.70628e-014 90 90   XYZ
    dof rx
    limits (0.0 90.0)
  end
  begin
     id 23
     name lthumb
     direction 0.707058 2.6516e-005 0.707156   
     length 0.630274   
     axis -90 45 -3.53137e-014   XYZ
    dof rx rz
    limits (-45.0 45.0)
           (-45.0 45.0)
  end
  begin
     id 24 
     name rclavicle
     direction -0.95274 0.284984 -0.105215   
     length 3.43401  
     axis 0 0 0   XYZ 
    dof ry rz
    limits (-10.0 20.0)
           (-20.0 0.0)
  end
  begin
     id 25 
     name rhumerus
     direction -0.999999 -0.000575019 -0.00106829  
     length 5.52077   
     axis -180 30 90   XYZ
    dof rx ry rz
    limits (-90.0 60.0)
           (-90.0 90.0)
           (-90.0 90.0)
  end
  begin
     id 26 
     name rradius
     direction -1 -4.4879e-011 -6.35415e-027   
     length 3.32364   
     axis -180 30 90   XYZ
    dof rx
    limits (-10.0 170.0)
  end
  begin
     id 27 
     name rwrist
     direction -1 -4.49048e-011 -9.98542e-027   
     length 1.66182   
     axis 6.32482e-015 -90 -90   XYZ
    dof ry
    limits (-180.0 0.0)
  end
  begin
     id 28
     name rhand
     direction -1 -4.48978e-011 -1.99771e-026   
     length 0.732235   
     axis 1.27479e-014 -90 -90   XYZ
    dof rx rz
    limits (-90.0 90.0)
           (-45.0 45.0)
  end
  begin
     id 29
     name rfingers
     direction -1 -4.49144e-011 -3.99245e-026   
     length 0.590347   
     axis 2.5496e-014 -90 -90   XYZ
    dof rx
    limits (0.0 90.0)
  end
  begin
     id 30
     name rthumb
     direction -0.707107 -6.35121e-011 0.707107   
     length 0.847624   
     axis -90 -45 -2.82974e-014   XYZ
    dof rx rz
    limits (-45.0 45.0)
           (-45.0 45.0)
  end
:hierarchy
  begin
    root lhipjoint rhipjoint lowerback
    lhipjoint lfemur
    lfemur ltibia
    ltibia lfoot
    lfoot ltoes
    rhipjoint rfemur
    rfemur rtibia
    rtibia rfoot
    rfoot rtoes
    lowerback upperback
    upperback thorax
    thorax lowerneck lclavicle rclavicle
    lowerneck upperneck
    upperneck head
    lclavicle lhumerus
    lhumerus lradius
    lradius lwrist
    lwrist lhand lthumb
    lhand lfingers
    rclavicle rhumerus
    rhumerus rradius
    rradius rwrist
    rwrist rhand rthumb
    rhand rfingers
  end

#!OML:ASF G:\Work\Work\Patient Classification 1\Elijah\terrain1\Elijah.ASF
:FULLY-SPECIFIED
:DEGREES
443
root 1.25808 19.7996 19.7875 11.6645 74.2592 0.928168
lowerback 8.61595 2.71939 -2.27065
upperback 1.38939 3.39215 -1.22376
thorax -3.43983 1.7179 -0.382751
lowerneck -3.22318 18.6875 19.6935
upperneck 21.9128 32.9356 -24.1372
head 16.3143 15.0012 -6.08367
rclavicle -7.30534e-015 -3.77691e-015
rhumerus -40.3766 -2.39621 -82.4235
rradius 33.5378
rwrist -1.20992
rhand -13.8724 23.1334
rfingers 7.12502
rthumb 12.2521 -6.4877
lclavicle -7.30534e-015 -3.77691e-015
lhumerus -35.6758 -5.23548 82.3981
lradius 48.5778
lwrist 6.74046
lhand -19.2121 26.4736
lfingers 7.12502
lthumb 7.10037 56.3345
rfemur -32.6598 -8.96918 18.845
rtibia 82.7816
rfoot 8.2003 -7.49971
rtoes -7.64515
lfemur -39.6579 -5.51482 -26.1928
ltibia 55.3581
lfoot -23.588 -5.75351
ltoes 16.6945
444
root 1.31912 19.8435 19.801 12.8719 74.954 2.24629
lowerback 8.82566 2.53281 -2.44593
upperback 1.33666 3.11813 -1.29244
thorax -3.61317 1.58521 -0.335791
lowerneck -3.08006 18.7365 20.2407
upperneck 22.0567 33.1115 -24.239
head 16.5626 15.1156 -6.1493
rclavicle 7.40473e-015 1.45113e-014
rhumerus -40.4496 -2.63917 -82.2821
rradius 33.0315
rwrist -0.900488
rhand -13.7175 23.0408
rfingers 7.12502
rthumb 12.4015 -6.57133
lclavicle 7.40473e-015 1.45113e-014
lhumerus -35.8185 -4.87944 82.2927
lradius 49.4636
lwrist 6.67653
lhand -17.638 25.2287
lfingers 7.12502
lthumb 8.61973 55.0328
rfemur -34.4635 -9.24968 18.7427
rtibia 85.3871
rfoot 7.29964 -6.6378
rtoes -9.92148
lfemur -38.8433 -6.09142 -26.499
ltibia 54.3791
lfoot -23.2607 -5.67592
ltoes 16.3532
445
root 1.40596 19.898 19.8165 13.0026 75.0465 2.81433
lowerback 9.04206 2.53408 -2.57861
upperback 1.4718 3.10551 -1.29986
thorax -3.59937 1.58114 -0.274241
lowerneck -2.96541 18.6988 20.6707
upperneck 22.1576 33.3025 -24.6383
head 16.8791 15.2202 -6.31643
rclavicle 4.79568e-014 -9.93923e-016
rhumerus -40.3729 -3.01601 -81.9414
rradius 32.4487
rwrist -0.286703
rhand -12.8703 23.0773
rfingers 7.12502
rthumb 13.2182 -6.48366
lclavicle 4.79568e-014 -9.93923e-016
lhumerus -35.9819 -4.52544 82.2213
lradius 50.42
lwrist 6.85299
lhand -15.2859 23.5592
lfingers 7.12502
lthumb 10.889 53.2569
rfemur -35.7181 -8.84518 18.6683
rtibia 87.68
rfoot 6.23919 -6.1601
rtoes -10.1082
lfemur -37.4554 -5.93312 -26.7641
ltibia 53.3143
lfoot -23.0263 -5.79868
ltoes 16.3853
446
root 1.48232 19.9389 19.8281 14.4879 75.4918 4.3367
lowerback 8.85971 2.47827 -2.80977
upperback 1.53298 3.01931 -1.30558
thorax -3.4445 1.5405 -0.130229
lowerneck -2.91101 18.9107 18.9794
upperneck 21.8319 33.0545 -23.4306
head 15.8639 15.0721 -5.71241
rclavicle -2.9271e-014 2.32578e-014
rhumerus -40.2621 -3.33778 -81.4422
rradius 31.9487
rwrist 0.0299741
rhand -12.1747 23.0652
rfingers 7.12502
rthumb 13.8886 -6.45103
lclavicle -2.9271e-014 2.32578e-014
lhumerus -36.1918 -4.77419 82.5074
lradius 51.6734
lwrist 7.75385
lhand -15.6054 23.0218
lfingers 7.12502
lthumb 10.5808 52.7354
rfemur -37.626 -9.10914 18.417
rtibia 90.017
rfoot 5.24927 -5.59958
rtoes -10.6215
lfemur -36.6276 -6.43232 -27.1641
ltibia 52.2633
lfoot -22.6092 -5.81799
ltoes 17.0988
447
root 1.55787 19.9877 19.8624 17.3094 75.4544 7.46546
lowerback 8.8664 2.54648 -3.87025
upperback 1.665 3.01688 -1.37028
thorax -3.36114 1.5506 0.397546
lowerneck -2.88876 19.0821 18.2687
upperneck 21.7145 33.1454 -22.9961
head 15.5436 15.0933 -5.43584
rclavicle 4.95471e-014 -3.72721e-014
rhumerus -40.0965 -3.45783 -81.1011
rradius 31.4939
rwrist 0.132714
rhand -12.1668 23.0032
rfingers 7.12502
rthumb 13.8962 -6.51253
lclavicle 4.95471e-014 -3.72721e-014
lhumerus -36.3773 -4.88134 82.7314
lradius 52.9277
lwrist 8.80271
lhand -18.0591 23.989
lfingers 7.12502
lthumb 8.21327 53.8094
rfemur -39.2224 -8.92424 17.8007
rtibia 92.1399
rfoot 4.28566 -5.24461
rtoes -10.9459
lfemur -35.41 -6.33236 -28.0132
ltibia 51.1431
lfoot -22.2795 -6.18449
ltoes 18.2718
448
root 1.62881 20.0226 19.8853 20.3707 75.8063 10.6477
lowerback 8.85142 2.46343 -4.52969
upperback 1.6624 2.84303 -1.58751
thorax -3.36906 1.4725 0.561599
lowerneck -2.84898 19.2358 18.2539
upperneck 21.7682 33.2419 -22.618
head 15.4697 15.1502 -5.26431
rclavicle -2.28105e-014 1.64991e-014
rhumerus -40.111 -3.81434 -81.0053
rradius 31.0809
rwrist 0.48842
rhand -12.4151 22.8313
rfingers 7.12502
rthumb 13.6569 -6.70065
lclavicle -2.28105e-014 1.64991e-014
lhumerus -36.4896 -4.92369 82.7852
lradius 53.8505
lwrist 9.44956
lhand -20.3008 25.2927
lfingers 7.12502
lthumb 6.04942 55.1864
rfemur -41.0523 -9.24499 17.2277
rtibia 94.156
rfoot 3.41621 -4.61811
rtoes -10.897
lfemur -34.5404 -6.70361 -28.7889
ltibia 50.1017
lfoot -21.8606 -6.33624
ltoes 18.9693
449
root 1.69919 20.0628 19.9039 20.7975 76.1695 11.4566
lowerback 9.1928 2.56701 -4.39857
upperback 1.73521 2.97296 -1.7932
thorax -3.47102 1.53765 0.24604
lowerneck -2.8109 18.9395 20.9183
upperneck 22.3567 33.5483 -24.0955
head 16.8955 15.3686 -6.05592
rclavicle 1.98785e-016 2.18663e-015
rhumerus -40.2991 -4.85343 -80.8839
rradius 30.744
rwrist 1.15198
rhand -12.6013 22.9551
rfingers 7.12502
rthumb 13.4775 -6.58878
lclavicle 1.98785e-016 2.18663e-015
lhumerus -36.4537 -5.48802 82.906
lradius 54.6366
lwrist 10.0045
lhand -23.0701 26.6923
lfingers 7.12502
lthumb 3.37545 56.6454
rfemur -42.3519 -9.28861 17.3295
rtibia 95.8047
rfoot 2.51968 -3.99684
rtoes -12.0431
lfemur -33.3533 -6.5611 -28.988
ltibia 49.0996
lfoot -21.4795 -6.64597
ltoes 18.8527
450
root 1.77217 20.0992 19.9281 21.6961 76.399 12.3765
lowerback 9.14565 2.63664 -4.58338
upperback 1.68241 3.04624 -1.86871
thorax -3.50793 1.57698 0.261817
lowerneck -2.9373 18.9494 19.1893
upperneck 22.2687 32.942 -22.6575
head 15.857 15.0607 -5.48208
rclavicle -2.82274e-014 -2.98177e-015
rhumerus -40.4891 -5.53278 -80.6424
rradius 30.4682
rwrist 1.58777
rhand -12.3052 23.2413
rfingers 7.12502
rthumb 13.7629 -6.28354
lclavicle -2.82274e-014 -2.98177e-015
lhumerus -36.8031 -5.71779 82.9823
lradius 55.8334
lwrist 10.2978
lhand -21.2278 26.1393
lfingers 7.12502
lthumb 5.15437 56.0566
rfemur -44.1287 -9.09745 17.513
rtibia 97.3391
rfoot 1.51524 -3.64336
rtoes -13.2298
lfemur -32.6097 -6.61674 -29.1469
ltibia 48.2181
lfoot -21.27 -6.75253
ltoes 18.3556
